<svg class="grandworks" version="1.1" id="Layer_1" xmlns="http://www.w3.org/2000/svg" xmlns:xlink="http://www.w3.org/1999/xlink" x="0px" y="0px" viewBox="0 0 241.9 30.1" style="enable-background:new 0 0 241.9 30.1;" xml:space="preserve">
                    <g>
                    	<path fill="#B1B9C3" d="M24.2,29.6l-0.9-2.8c-0.8,1.1-3.6,3.4-8.9,3.4C5.8,30.1,0,23.7,0,15.1C0,6.6,5.8,0,14.2,0c7.7,0,11.3,3.9,12.8,8.1L21.5,10
                    		c-1-2.4-2.8-4.5-6.9-4.5C9.4,5.6,6,9.9,6,15.1c0,5.3,3.6,9.5,8.8,9.5c5.4,0,7.1-3.7,7.5-6.3h-5.8v-5.1h11.8v16.3H24.2z"></path>
                    	<path fill="#B1B9C3" d="M46.9,9.1l-2.1,5.2c-0.3-0.3-1.1-0.7-2.3-0.7c-2.2,0-3.9,1.5-3.9,4.7v11.2h-5.9V8.7h4.8l0.9,2.3c0.8-1.4,2.4-2.9,5-2.9
                    		C45.1,8.1,46.3,8.7,46.9,9.1z"></path>
                    	<path fill="#B1B9C3" d="M57.6,8.1c4.4,0,8.8,2.2,8.8,7.9v13.6h-4.8l-0.7-1.7c-0.7,1-2.2,2.3-5.5,2.3c-3.5,0-7.1-2.2-7.1-6.5c0-2.7,1.2-5.9,8.4-6.9
                    		l3.9-0.5v-0.1c0-2.1-0.9-3.4-3.2-3.4c-2.2,0-3.3,1-3.6,2.9l-5.1-1.2C49.9,10.2,52.4,8.1,57.6,8.1z M60.5,20.1l-3.6,0.5
                    		c-2.3,0.3-3,1.2-3,2.6c0,1.3,1.1,2.2,3.1,2.2c1.9,0,3.5-1.2,3.5-3.1V20.1z"></path>
                    	<path fill="#B1B9C3" d="M84.4,18.1c0-3.4-1.4-4.5-3.6-4.5c-2.3,0-3.9,1.5-3.9,4.8v11.2H71V8.7h4.8l0.9,2.4c1.1-1.5,2.9-2.9,6-2.9
                    		c5.1,0,7.6,2.9,7.6,9.4v12.1h-5.9V18.1z"></path>
                    	<path fill="#B1B9C3" d="M116,29.6h-4.8l-0.8-2.3c-0.9,1.2-2.9,2.9-6.3,2.9c-5.5,0-10.2-4.6-10.2-11c0-6.5,4.6-11,10.1-11c3.1,0,5.2,1.4,6.1,2.6
                    		V0.6h5.9V29.6z M105,13.4c-2.9,0-5.2,2.4-5.2,5.7c0,3.4,2.3,5.7,5.2,5.7c2.9,0,5.1-2.4,5.1-5.7C110.1,15.7,107.9,13.4,105,13.4z"></path>
                    	<path fill="#B1B9C3" d="M159.5,0.6l-8.2,29h-5.9L140,8.9l-5.3,20.6h-6l-8.1-29h6.1l5.2,20.3l5.2-20.3h5.9l5.2,19.8l5.1-19.8H159.5z"></path>
                    	<path fill="#B1B9C3" d="M170.5,30.1c-6,0-10.9-4.5-10.9-11c0-6.5,4.9-11,10.9-11c6,0,10.9,4.5,10.9,11C181.4,25.6,176.4,30.1,170.5,30.1z
                    		 M170.5,24.7c2.8,0,5-2.2,5-5.6c0-3.3-2.2-5.5-5-5.5c-2.9,0-5.1,2.3-5.1,5.5C165.4,22.4,167.6,24.7,170.5,24.7z"></path>
                    	<path fill="#B1B9C3" d="M200.1,9.1l-2.1,5.2c-0.3-0.3-1.1-0.7-2.3-0.7c-2.2,0-3.9,1.5-3.9,4.7v11.2h-5.9V8.7h4.8l0.9,2.3c0.8-1.4,2.4-2.9,5-2.9
                    		C198.3,8.1,199.5,8.7,200.1,9.1z"></path>
                    	<path fill="#B1B9C3" d="M210.8,21.1l-1.7,1.8v6.7h-5.9v-29h5.9v14.7l6.2-6.6h7.1l-7.7,8.3l8.7,12.6h-6.6L210.8,21.1z"></path>
                    	<path fill="#B1B9C3" d="M236.4,15.4c-0.3-1.2-1.1-2.7-3.1-2.7c-1.9,0-2.9,0.7-2.9,1.7c0,1.1,1.2,1.6,3.7,2.1c4.8,0.9,7.8,2.5,7.8,6.7
                    		c0,3.7-3.1,6.8-8.6,6.8c-4.6,0-7.8-2.5-8.8-6.2l5-1.6c0.5,1.9,1.7,3.1,3.8,3.1c2,0,3.2-0.8,3.2-2c0-1-1.1-1.7-3.4-2
                    		c-4.5-0.8-8.1-2.2-8.1-6.6c0-3.4,2.8-6.7,8.3-6.7c4.1,0,7.1,2.2,8,5.9L236.4,15.4z"></path>
                    </g>
                    </svg>
