<?xml version="1.0" encoding="UTF-8"?>
<svg width="155px" height="43px" viewBox="0 0 155 43" version="1.1" xmlns="http://www.w3.org/2000/svg" xmlns:xlink="http://www.w3.org/1999/xlink">
    <!-- Generator: Sketch 50.2 (55047) - http://www.bohemiancoding.com/sketch -->
    <title>indiastack</title>
    <desc>Created with Sketch.</desc>
    <defs>
        <polygon id="path-1" points="0 42.9225145 154.620801 42.9225145 154.620801 0.176410447 0 0.176410447"></polygon>
        <polygon id="path-3" points="0 42.9225145 154.620801 42.9225145 154.620801 0.176410447 0 0.176410447"></polygon>
        <polygon id="path-5" points="0 42.9225145 154.620801 42.9225145 154.620801 0.176410447 0 0.176410447"></polygon>
        <polygon id="path-7" points="0 42.9225145 154.620801 42.9225145 154.620801 0.176410447 0 0.176410447"></polygon>
        <polygon id="path-9" points="0 42.9225145 154.620801 42.9225145 154.620801 0.176410447 0 0.176410447"></polygon>
        <polygon id="path-11" points="0 42.9225145 154.620801 42.9225145 154.620801 0.176410447 0 0.176410447"></polygon>
        <polygon id="path-13" points="0 42.9225145 154.620801 42.9225145 154.620801 0.176410447 0 0.176410447"></polygon>
        <polygon id="path-15" points="0 42.9225145 154.620801 42.9225145 154.620801 0.176410447 0 0.176410447"></polygon>
        <polygon id="path-17" points="0 42.9225145 154.620801 42.9225145 154.620801 0.176410447 0 0.176410447"></polygon>
        <polygon id="path-19" points="0 42.9225145 154.620801 42.9225145 154.620801 0.176410447 0 0.176410447"></polygon>
        <polygon id="path-21" points="0 42.9225145 154.620801 42.9225145 154.620801 0.176410447 0 0.176410447"></polygon>
        <polygon id="path-23" points="0 42.9225145 154.620801 42.9225145 154.620801 0.176410447 0 0.176410447"></polygon>
        <polygon id="path-25" points="0 42.9225145 154.620801 42.9225145 154.620801 0.176410447 0 0.176410447"></polygon>
        <polygon id="path-27" points="0 42.9225145 154.620801 42.9225145 154.620801 0.176410447 0 0.176410447"></polygon>
        <polygon id="path-29" points="0 42.9225145 154.620801 42.9225145 154.620801 0.176410447 0 0.176410447"></polygon>
        <polygon id="path-31" points="0 42.9225145 154.620801 42.9225145 154.620801 0.176410447 0 0.176410447"></polygon>
        <polygon id="path-33" points="0 42.9225145 154.620801 42.9225145 154.620801 0.176410447 0 0.176410447"></polygon>
        <polygon id="path-35" points="0 42.9225145 154.620801 42.9225145 154.620801 0.176410447 0 0.176410447"></polygon>
        <polygon id="path-37" points="0 42.9225145 154.620801 42.9225145 154.620801 0.176410447 0 0.176410447"></polygon>
        <polygon id="path-39" points="0 42.9225145 154.620801 42.9225145 154.620801 0.176410447 0 0.176410447"></polygon>
        <polygon id="path-41" points="0 42.9225145 154.620801 42.9225145 154.620801 0.176410447 0 0.176410447"></polygon>
        <polygon id="path-43" points="0 42.9225145 154.620801 42.9225145 154.620801 0.176410447 0 0.176410447"></polygon>
        <polygon id="path-45" points="0 42.9225145 154.620801 42.9225145 154.620801 0.176410447 0 0.176410447"></polygon>
        <polygon id="path-47" points="0 42.9225145 154.620801 42.9225145 154.620801 0.176410447 0 0.176410447"></polygon>
        <polygon id="path-49" points="0 42.9225145 154.620801 42.9225145 154.620801 0.176410447 0 0.176410447"></polygon>
    </defs>
    <g id="Page-1" stroke="none" stroke-width="1" fill="none" fill-rule="evenodd">
        <g id="Startpage" transform="translate(-798.000000, -3409.000000)">
            <g id="Key-Initiatives" transform="translate(740.000000, 3189.000000)">
                <g id="India-Stack" transform="translate(4.000000, 152.000000)">
                    <g id="indiastack" transform="translate(54.000000, 68.000000)">
                        <g>
                            <polygon id="Fill-1" fill="#A7A8AB" fill-rule="nonzero" points="0 42.3824182 2.35611389 42.3824182 2.35611389 17.326206 0 17.326206"></polygon>
                            <g id="Group-32" transform="translate(0.000000, 0.021195)">
                                <path d="M8.38571378,24.2537138 L8.38571378,27.3768393 L8.4552059,27.3768393 C8.87133134,26.2777136 9.6100988,25.3947269 10.6731628,24.7278793 C11.7353995,24.0610317 12.9018745,23.7276079 14.1725876,23.7276079 C15.4201366,23.7276079 16.4650004,23.8918066 17.3088333,24.2185284 C18.151839,24.5469257 18.8277326,25.0085249 19.3365142,25.6050017 C19.8436412,26.2014785 20.2026839,26.9328327 20.410333,27.7982266 C20.617982,28.6636205 20.7222202,29.6345707 20.7222202,30.7102395 L20.7222202,42.3608043 L18.5390094,42.3608043 L18.5390094,31.061256 C18.5390094,30.2896899 18.4695172,29.5700641 18.3313603,28.9032165 C18.192376,28.2363689 17.9499809,27.6574849 17.6033476,27.1665645 C17.2567142,26.6748062 16.789297,26.289442 16.1994412,26.0079586 C15.61124,25.727313 14.8774363,25.5874089 13.9996846,25.5874089 C13.1211056,25.5874089 12.3418011,25.7449057 11.6601164,26.0607367 C10.9792591,26.3765678 10.4009853,26.8096837 9.92777711,27.3592465 C9.45374155,27.9096471 9.08394417,28.5647663 8.81921226,29.3246039 C8.55282578,30.0852793 8.40887782,30.9096236 8.38571378,31.7984745 L8.38571378,42.3608043 L6.2025029,42.3608043 L6.2025029,24.2537138 L8.38571378,24.2537138 Z" id="Fill-2" fill="#A7A8AB" fill-rule="nonzero"></path>
                                <path d="M25.7293759,36.0972958 C25.948607,37.0213321 26.2952403,37.8465141 26.7692758,38.5711664 C27.2424841,39.2966563 27.8488856,39.8872688 28.5884804,40.3430038 C29.3272478,40.7995767 30.2165816,41.0274442 31.2564815,41.0274442 C32.4113744,41.0274442 33.3884005,40.7995767 34.1850781,40.3430038 C34.9817557,39.8872688 35.6286943,39.2966563 36.1250666,38.5711664 C36.6222661,37.8465141 36.9796542,37.0213321 37.1997126,36.0972958 C37.4189437,35.1732595 37.5289729,34.2433589 37.5289729,33.3075942 C37.5289729,32.3718293 37.4189437,31.4419288 37.1997126,30.5178925 C36.9796542,29.5938562 36.6222661,28.7695119 36.1250666,28.044022 C35.6286943,27.3185319 34.9817557,26.7279195 34.1850781,26.2713467 C33.3884005,25.8156116 32.4113744,25.5877441 31.2564815,25.5877441 C30.2165816,25.5877441 29.3272478,25.8156116 28.5884804,26.2713467 C27.8488856,26.7279195 27.2424841,27.3185319 26.7692758,28.044022 C26.2952403,28.7695119 25.948607,29.5938562 25.7293759,30.5178925 C25.5093175,31.4419288 25.4001156,32.3718293 25.4001156,33.3075942 C25.4001156,34.2433589 25.5093175,35.1732595 25.7293759,36.0972958 Z M37.701876,42.3611394 L37.701876,38.9221828 L37.6332111,38.9221828 C37.4015707,39.5069311 37.0615556,40.0447655 36.6106841,40.535686 C36.1598127,41.0274442 35.6460673,41.4438051 35.0686208,41.7822553 C34.4903471,42.1215434 33.8731909,42.3845963 33.2146703,42.5714142 C32.5561497,42.7582321 31.9025928,42.8528976 31.2564815,42.8528976 C29.8931122,42.8528976 28.7092643,42.6007354 27.7049376,42.0980865 C26.6997837,41.5945997 25.8617418,40.9051329 25.1924665,40.0271728 C24.5223639,39.1508881 24.0251643,38.133024 23.701695,36.9744182 C23.3782257,35.8166502 23.2169047,34.5943755 23.2169047,33.3075942 C23.2169047,32.0208129 23.3782257,30.7985382 23.701695,29.64077 C24.0251643,28.4821643 24.5223639,27.4651379 25.1924665,26.5880155 C25.8617418,25.7100553 26.6997837,25.0138865 27.7049376,24.4995091 C28.7092643,23.9851317 29.8931122,23.7271053 31.2564815,23.7271053 C31.9265841,23.7271053 32.5784864,23.8100423 33.2146703,23.9734032 C33.8500268,24.1367641 34.4448463,24.3889263 34.9991287,24.7273767 C35.5542384,25.0666647 36.0448197,25.4821878 36.4716999,25.9731083 C36.8994073,26.4640287 37.2286676,27.0378863 37.4594808,27.6930054 L37.5289729,27.6930054 L37.5289729,17.305765 L39.7121838,17.305765 L39.7121838,42.3611394 L37.701876,42.3611394 Z" id="Fill-4" fill="#A7A8AB" fill-rule="nonzero"></path>
                                <g id="Fill-6-Clipped">
                                    <mask id="mask-2" fill="white">
                                        <use xlink:href="#path-1"></use>
                                    </mask>
                                    <g id="path-1"></g>
                                    <polygon id="Fill-6" fill="#A7A8AB" fill-rule="nonzero" mask="url(#mask-2)" points="43.037961 42.3612232 45.2211719 42.3612232 45.2211719 24.2541327 43.037961 24.2541327"></polygon>
                                </g>
                                <g id="Fill-8-Clipped">
                                    <mask id="mask-4" fill="white">
                                        <use xlink:href="#path-3"></use>
                                    </mask>
                                    <g id="path-1"></g>
                                    <path d="M59.9147022,32.4652383 C59.7765452,32.7224269 59.5101588,32.9100826 59.1171973,33.0265296 C58.7250632,33.1438143 58.3776026,33.2259137 58.0781247,33.2728276 C57.1540449,33.4361885 56.20101,33.5827944 55.2190202,33.7109699 C54.2370303,33.8399831 53.3419055,34.0326652 52.533646,34.289854 C51.7245591,34.5478804 51.0610748,34.9156519 50.5407111,35.3956816 C50.0211748,35.8748736 49.7614066,36.5593139 49.7614066,37.4481648 C49.7614066,38.0094562 49.8706085,38.5070786 50.0898396,38.9401945 C50.309898,39.3724725 50.6044123,39.746946 50.9742096,40.0619393 C51.3431797,40.3777704 51.7708871,40.6182042 52.2565048,40.7824029 C52.7412951,40.9457637 53.2376674,41.0278631 53.746449,41.0278631 C54.5786999,41.0278631 55.3753774,40.8988498 56.137309,40.6416611 C56.9000677,40.3844724 57.563552,40.009999 58.1302438,39.5182408 C58.6952808,39.0273202 59.1461524,38.4308435 59.4812037,37.7288104 C59.816255,37.0276152 59.9841943,36.2317544 59.9841943,35.3429035 L59.9841943,32.4652383 L59.9147022,32.4652383 Z M48.9986478,27.0617622 C49.3684452,26.2893582 49.8706085,25.6576961 50.505965,25.1659379 C51.1413217,24.6750174 51.8867074,24.3122724 52.7412951,24.0785407 C53.5958827,23.8448089 54.5431265,23.7275241 55.5830265,23.7275241 C56.368122,23.7275241 57.1540449,23.8037592 57.9391404,23.9553917 C58.7250632,24.1078618 59.4290846,24.3943717 60.0536864,24.8157591 C60.6766336,25.2363087 61.184588,25.8269212 61.5783767,26.5875966 C61.9705108,27.348272 62.1665779,28.3359772 62.1665779,29.5523877 L62.1665779,39.1680619 C62.1665779,40.0577506 62.5942854,40.5009194 63.4497003,40.5009194 C63.7028501,40.5009194 63.9344906,40.4548433 64.142967,40.3610155 L64.142967,42.2208165 C63.8881625,42.2677304 63.6631404,42.3029159 63.4670733,42.3263729 C63.270179,42.3498298 63.0219928,42.3615583 62.7216876,42.3615583 C62.1665779,42.3615583 61.7223247,42.2853232 61.3872734,42.132853 C61.0522221,41.9812206 60.7924539,41.7642438 60.6079689,41.4835981 C60.4226565,41.2029524 60.3010453,40.8695286 60.2439625,40.4833267 C60.1860524,40.0979625 60.1570974,39.6707109 60.1570974,39.2024096 L60.0884325,39.2024096 C59.6946438,39.7879957 59.2967186,40.3082373 58.8921752,40.7648101 C58.4876318,41.2205452 58.0375876,41.6008828 57.5412153,41.9049855 C57.0440157,42.2090881 56.4781512,42.4428198 55.8427947,42.6070185 C55.2074381,42.7703794 54.4504704,42.8524787 53.5727186,42.8524787 C52.7412951,42.8524787 51.9619905,42.7527867 51.2339778,42.5542403 C50.505965,42.355694 49.8706085,42.0398629 49.3279082,41.6067471 C48.7852077,41.1736313 48.3575002,40.6240684 48.045613,39.9580585 C47.7337257,39.2903732 47.5781958,38.5003766 47.5781958,37.5889065 C47.5781958,36.3255822 47.855337,35.3370393 48.4096194,34.6232778 C48.9639017,33.910354 49.6977055,33.3658176 50.6102033,32.9913442 C51.522701,32.6177085 52.551019,32.3546555 53.6943299,32.2021854 C54.8376407,32.0505529 55.9983247,31.903947 57.1772089,31.7632053 C57.6388352,31.7171291 58.0433786,31.6576489 58.3900119,31.5881158 C58.7366453,31.517745 59.0253685,31.3954338 59.2561816,31.2195066 C59.4869947,31.0444172 59.666516,30.8048213 59.7930909,30.4998809 C59.9204932,30.196616 59.9841943,29.7986856 59.9841943,29.3069274 C59.9841943,28.5579805 59.8625831,27.9447488 59.620188,27.464719 C59.3777928,26.9855271 59.0427415,26.6051893 58.6150341,26.3245437 C58.1873266,26.0430603 57.6909543,25.8503781 57.1250898,25.7456596 C56.5583981,25.6401033 55.9519966,25.5873252 55.3058853,25.5873252 C53.919352,25.5873252 52.7876231,25.920749 51.9098714,26.5875966 C51.0312925,27.2544442 50.5696662,28.3242487 50.5241654,29.7986856 L48.3401272,29.7986856 C48.4096194,28.7456361 48.6288505,27.8333282 48.9986478,27.0617622 Z" id="Fill-8" fill="#A7A8AB" fill-rule="nonzero" mask="url(#mask-4)"></path>
                                </g>
                                <g id="Fill-9-Clipped">
                                    <mask id="mask-6" fill="white">
                                        <use xlink:href="#path-5"></use>
                                    </mask>
                                    <g id="path-1"></g>
                                    <path d="M70.1376553,36.1849242 C70.4379605,36.7696726 70.8358857,37.243838 71.3330853,37.6057453 C71.8294576,37.969328 72.4126951,38.2382452 73.0827977,38.4133346 C73.7529003,38.588424 74.446167,38.6763875 75.1625977,38.6763875 C75.647388,38.6763875 76.1677516,38.6361756 76.7212067,38.5540763 C77.2763164,38.4719769 77.7958528,38.3136426 78.2814703,38.0799108 C78.7662606,37.846179 79.1699768,37.5244837 79.4942733,37.1148248 C79.8169154,36.7060036 79.9790636,36.1849242 79.9790636,35.5532621 C79.9790636,34.874686 79.7656235,34.3251232 79.3379161,33.9037358 C78.9102086,33.4831862 78.3501352,33.1313319 77.6576958,32.851524 C76.9644291,32.5708784 76.1785063,32.3245803 75.3007547,32.1143055 C74.4230029,31.903193 73.5336692,31.6702989 72.6327535,31.4122725 C71.7078464,31.1785407 70.8069307,30.8920308 69.9300062,30.5527429 C69.0514272,30.2142925 68.2663317,29.7753125 67.5730651,29.2366403 C66.8797984,28.698806 66.319725,28.0260941 65.8928448,27.2193425 C65.4651373,26.4117533 65.2516972,25.4357766 65.2516972,24.2888992 C65.2516972,23.0021179 65.5222202,21.8845618 66.0657478,20.9370685 C66.6084482,19.990413 67.3190879,19.2004164 68.1968396,18.5687542 C69.0745913,17.937092 70.0681632,17.4696285 71.176728,17.1655259 C72.2861202,16.8614233 73.394685,16.7089532 74.5040771,16.7089532 C75.797127,16.7089532 77.038885,16.8555591 78.2293512,17.1479332 C79.4189902,17.4403073 80.475436,17.9144728 81.400343,18.5687542 C82.3235955,19.2238733 83.0573992,20.0599461 83.6000996,21.0778102 C84.1428,22.0956743 84.4149775,23.3296775 84.4149775,24.7798197 L79.14764,24.7798197 C79.1004847,24.0317105 78.9449546,23.4117768 78.6793955,22.9200186 C78.4138363,22.4290981 78.0614119,22.0428962 77.6221224,21.7622505 C77.1836602,21.4816049 76.6806697,21.2830586 76.1156325,21.1657738 C75.5489408,21.0493268 74.9309573,20.9898466 74.2616819,20.9898466 C73.8223924,20.9898466 73.3831029,21.0375983 72.9446407,21.1305884 C72.5053512,21.2244161 72.1065988,21.3886148 71.7492108,21.6215088 C71.3901681,21.8560783 71.0964812,22.1484525 70.8648407,22.4994689 C70.6340276,22.8496478 70.5190347,23.2953298 70.5190347,23.8331641 C70.5190347,24.3240847 70.6108636,24.7220151 70.7961759,25.0261177 C70.9798336,25.3302203 71.3446673,25.610866 71.8873677,25.8680547 C72.4300681,26.1260811 73.1812449,26.3824321 74.1400707,26.6396208 C75.0980693,26.8976472 76.3514094,27.2252068 77.8992636,27.6222995 C78.3617172,27.7161273 79.0028648,27.8853524 79.8235336,28.1316504 C80.642548,28.3771107 81.4574258,28.7691768 82.2665127,29.3070112 C83.0747722,29.8456833 83.7738299,30.565309 84.3628584,31.4650507 C84.9518869,32.36563 85.2464011,33.5183716 85.2464011,34.9215999 C85.2464011,36.0676395 85.0263427,37.1324175 84.5878805,38.1150962 C84.148591,39.0977749 83.4958614,39.9455761 82.630519,40.6593376 C81.7635221,41.3722613 80.6897033,41.9285262 79.4074082,42.3256188 C78.1251131,42.7235493 76.6409599,42.9220956 74.9541213,42.9220956 C73.590752,42.9220956 72.2687471,42.7520327 70.986452,42.4135824 C69.7041569,42.0751322 68.572428,41.5423243 67.5904381,40.8168342 C66.6084482,40.092182 65.8283164,39.167308 65.2516972,38.0447254 C64.6734235,36.9221427 64.3962823,35.5884475 64.4194464,34.0444775 L69.6867839,34.0444775 C69.6867839,34.8864145 69.8373501,35.6001759 70.1376553,36.1849242" id="Fill-9" fill="#444445" fill-rule="nonzero" mask="url(#mask-6)"></path>
                                </g>
                                <g id="Fill-10-Clipped">
                                    <mask id="mask-8" fill="white">
                                        <use xlink:href="#path-7"></use>
                                    </mask>
                                    <g id="path-1"></g>
                                    <path d="M96.9243871,24.2187797 L96.9243871,27.5521799 L93.3207243,27.5521799 L93.3207243,36.5361921 C93.3207243,37.3781291 93.4588807,37.9394204 93.736022,38.220066 C94.0131633,38.5007117 94.5682727,38.6414534 95.3996966,38.6414534 C95.6768379,38.6414534 95.9423971,38.6297249 96.1963743,38.606268 C96.4511791,38.5836488 96.6927465,38.5476256 96.9243871,38.5007117 L96.9243871,42.3610556 C96.5082618,42.4314265 96.046635,42.4783404 95.5378539,42.5017973 C95.0298996,42.5244165 94.5335274,42.536145 94.0479096,42.536145 C93.2859781,42.536145 92.5637563,42.4842046 91.8820717,42.3786483 C91.2003871,42.2730921 90.5997762,42.0686815 90.0802399,41.7645789 C89.5607035,41.461314 89.1503692,41.0281982 88.8500638,40.4660691 C88.5497592,39.9047777 88.4000198,39.1675593 88.4000198,38.2552515 L88.4000198,27.5521799 L85.4193041,27.5521799 L85.4193041,24.2187797 L88.4000198,24.2187797 L88.4000198,18.7792803 L93.3207243,18.7792803 L93.3207243,24.2187797 L96.9243871,24.2187797 Z" id="Fill-10" fill="#444445" fill-rule="nonzero" mask="url(#mask-8)"></path>
                                </g>
                                <g id="Fill-11-Clipped">
                                    <mask id="mask-10" fill="white">
                                        <use xlink:href="#path-9"></use>
                                    </mask>
                                    <g id="path-1"></g>
                                    <path d="M109.572532,33.4828511 C109.364883,33.6705067 109.105115,33.8162749 108.793228,33.9218311 C108.481341,34.0273874 108.145462,34.1145133 107.788074,34.1848841 C107.429858,34.2552549 107.05427,34.3138973 106.661309,34.3599735 C106.268347,34.4077251 105.876213,34.4655297 105.483252,34.5359006 C105.113454,34.6054337 104.750275,34.6992615 104.39206,34.8165463 C104.033844,34.9338311 103.721958,35.0921654 103.456399,35.2898741 C103.190839,35.4892581 102.976572,35.7414203 102.81525,36.0446852 C102.653102,36.3487878 102.572855,36.7349898 102.572855,37.2024533 C102.572855,37.6472976 102.653102,38.0217711 102.81525,38.3258736 C102.976572,38.6299763 103.19663,38.8695723 103.473772,39.0454994 C103.750913,39.2205888 104.073555,39.3429001 104.443352,39.4132709 C104.813149,39.4836417 105.194529,39.5188272 105.58749,39.5188272 C106.557898,39.5188272 107.308247,39.3554662 107.840194,39.0270689 C108.371311,38.7003471 108.763445,38.308281 109.01825,37.8517081 C109.272227,37.3959731 109.428585,36.9335361 109.485667,36.4652348 C109.543578,35.9977713 109.572532,35.6241356 109.572532,35.3426521 L109.572532,33.4828511 Z M98.2064342,29.7984343 C98.2759258,28.6289378 98.5638215,27.6579875 99.0726035,26.8855837 C99.5805578,26.1140175 100.227496,25.4940838 101.013419,25.0257826 C101.798515,24.5583191 102.682057,24.2248953 103.664047,24.0255112 C104.646037,23.8269648 105.633818,23.7272728 106.627391,23.7272728 C107.528306,23.7272728 108.439976,23.7917794 109.364883,23.9207927 C110.288136,24.0489681 111.131969,24.3011304 111.8939,24.674766 C112.656659,25.0492395 113.280434,25.5703189 113.766051,26.2363288 C114.250841,26.9031764 114.494064,27.7861631 114.494064,28.8861265 L114.494064,38.3258736 C114.494064,39.1443537 114.539565,39.9284861 114.632221,40.6765952 C114.72405,41.4255421 114.886198,41.9876712 115.117838,42.361307 L110.126815,42.361307 C110.034159,42.0806612 109.958875,41.7941514 109.901793,41.5009395 C109.843882,41.2094031 109.803346,40.910327 109.780182,40.6062244 C108.995086,41.4255421 108.071007,41.9985619 107.007942,42.3261215 C105.945705,42.6536811 104.859477,42.817042 103.750913,42.817042 C102.896325,42.817042 102.09882,42.7123234 101.360052,42.5012109 C100.620458,42.2909361 99.973519,41.9633765 99.4192372,41.5185322 C98.8649546,41.0753634 98.4314562,40.5132343 98.1195687,39.8346582 C97.8076811,39.1560822 97.6521516,38.3484928 97.6521516,37.4135658 C97.6521516,36.3839732 97.8308453,35.536172 98.1890611,34.8684867 C98.5472761,34.2024768 99.0089021,33.6705067 99.5747667,33.2725763 C100.140631,32.8746458 100.78757,32.5764075 101.515583,32.3778611 C102.243595,32.1793148 102.976572,32.0209804 103.716167,31.9036957 C104.455762,31.7872486 105.182947,31.6934209 105.899378,31.6230499 C106.614981,31.5526791 107.251165,31.4471228 107.805447,31.3072189 C108.359729,31.1664772 108.798192,30.9620666 109.122488,30.6931495 C109.44513,30.4242322 109.595696,30.0321661 109.572532,29.5177887 C109.572532,28.9799542 109.485667,28.5527027 109.312764,28.2368715 C109.139034,27.9210405 108.908221,27.6755803 108.620325,27.4996531 C108.330775,27.323726 107.995723,27.207279 107.614344,27.1486366 C107.233792,27.090832 106.82263,27.060673 106.384168,27.060673 C105.414587,27.060673 104.651828,27.2717856 104.097546,27.6923352 C103.542436,28.1137226 103.218967,28.8157556 103.127138,29.7984343 L98.2064342,29.7984343 Z" id="Fill-11" fill="#444445" fill-rule="nonzero" mask="url(#mask-10)"></path>
                                </g>
                                <g id="Fill-12-Clipped">
                                    <mask id="mask-12" fill="white">
                                        <use xlink:href="#path-11"></use>
                                    </mask>
                                    <g id="path-1"></g>
                                    <path d="M125.997988,27.4821442 C125.212893,27.4821442 124.553545,27.6639355 124.022427,28.0258428 C123.491309,28.3894256 123.05781,28.8568891 122.722759,29.4299088 C122.387707,30.0037664 122.151103,30.6354286 122.012946,31.3248954 C121.873962,32.0151999 121.80447,32.6996402 121.80447,33.3782163 C121.80447,34.0324977 121.873962,34.700183 122.012946,35.3779213 C122.151103,36.0564974 122.376952,36.6705669 122.68884,37.2201297 C123.000727,37.7705304 123.421816,38.2204011 123.953761,38.5714177 C124.48488,38.9215964 125.131819,39.0975235 125.893751,39.0975235 C127.072634,39.0975235 127.978514,38.7640997 128.614698,38.0972521 C129.249227,37.4312423 129.647979,36.5356895 129.810128,35.4131068 L134.557102,35.4131068 C134.233632,37.8224707 133.309553,39.6588149 131.784862,40.9221393 C130.260172,42.1854636 128.307774,42.8171257 125.928497,42.8171257 C124.589119,42.8171257 123.358942,42.5892582 122.237968,42.1326855 C121.116994,41.6769504 120.16396,41.039424 119.378864,40.220944 C118.592941,39.4016262 117.981575,38.4256495 117.542286,37.2905006 C117.102996,36.1561895 116.883765,34.9096201 116.883765,33.5533057 C116.883765,32.1492396 117.085624,30.8457034 117.490167,29.6401836 C117.893883,28.4355017 118.48953,27.3941806 119.275453,26.5170582 C120.060548,25.6399358 121.019374,24.9554955 122.151103,24.464575 C123.282832,23.9728168 124.577537,23.7273566 126.032735,23.7273566 C127.094971,23.7273566 128.117498,23.8680983 129.099488,24.148744 C130.081478,24.4285519 130.958402,24.8558034 131.732744,25.429661 C132.507084,26.0026808 133.136649,26.7164423 133.62144,27.5701078 C134.107057,28.4237732 134.384198,29.4357731 134.453691,30.6052696 L129.636397,30.6052696 C129.312929,28.5234653 128.100126,27.4821442 125.997988,27.4821442" id="Fill-12" fill="#444445" fill-rule="nonzero" mask="url(#mask-12)"></path>
                                </g>
                                <g id="Fill-13-Clipped">
                                    <mask id="mask-14" fill="white">
                                        <use xlink:href="#path-13"></use>
                                    </mask>
                                    <g id="path-1"></g>
                                    <polygon id="Fill-13" fill="#444445" fill-rule="nonzero" mask="url(#mask-14)" points="141.834002 17.3055974 141.834002 30.7455924 148.037002 24.2186959 153.858622 24.2186959 147.10134 30.8854964 154.621381 42.3609719 148.660777 42.3609719 143.740072 34.2549199 141.834002 36.1147209 141.834002 42.3609719 136.913298 42.3609719 136.913298 17.3055974"></polygon>
                                </g>
                                <g id="Fill-14-Clipped">
                                    <mask id="mask-16" fill="white">
                                        <use xlink:href="#path-15"></use>
                                    </mask>
                                    <g id="path-1"></g>
                                    <polygon id="Fill-14" fill="#D6DE27" fill-rule="nonzero" mask="url(#mask-16)" points="119.106769 7.89542275 116.465241 6.35145274 105.012277 13.0383592 107.653805 14.5814915"></polygon>
                                </g>
                                <g id="Fill-15-Clipped">
                                    <mask id="mask-18" fill="white">
                                        <use xlink:href="#path-17"></use>
                                    </mask>
                                    <g id="path-1"></g>
                                    <polygon id="Fill-15" fill="#06A049" fill-rule="nonzero" mask="url(#mask-18)" points="107.653805 14.5809888 105.012277 13.0370188 105.012277 16.1266343 107.653805 17.6689288"></polygon>
                                </g>
                                <g id="Fill-16-Clipped">
                                    <mask id="mask-20" fill="white">
                                        <use xlink:href="#path-19"></use>
                                    </mask>
                                    <g id="path-1"></g>
                                    <polygon id="Fill-16" fill="#8BC440" fill-rule="nonzero" mask="url(#mask-20)" points="107.653805 14.5809888 119.106769 7.89408235 119.106769 10.9845356 107.653805 17.6689288"></polygon>
                                </g>
                                <g id="Fill-17-Clipped">
                                    <mask id="mask-22" fill="white">
                                        <use xlink:href="#path-21"></use>
                                    </mask>
                                    <g id="path-1"></g>
                                    <polygon id="Fill-17" fill="#D6DE27" fill-rule="nonzero" mask="url(#mask-22)" points="123.51075 10.472085 120.869222 8.92811497 109.416258 15.6150214 112.057786 17.1581537"></polygon>
                                </g>
                                <g id="Fill-18-Clipped">
                                    <mask id="mask-24" fill="white">
                                        <use xlink:href="#path-23"></use>
                                    </mask>
                                    <g id="path-1"></g>
                                    <polygon id="Fill-18" fill="#06A049" fill-rule="nonzero" mask="url(#mask-24)" points="112.057786 17.1577349 109.416258 15.6137649 109.416258 18.7033803 112.057786 20.2456749"></polygon>
                                </g>
                                <g id="Fill-19-Clipped">
                                    <mask id="mask-26" fill="white">
                                        <use xlink:href="#path-25"></use>
                                    </mask>
                                    <g id="path-1"></g>
                                    <polygon id="Fill-19" fill="#8BC440" fill-rule="nonzero" mask="url(#mask-26)" points="112.057786 17.1577349 123.51075 10.4708284 123.51075 13.5612817 112.057786 20.2456749"></polygon>
                                </g>
                                <g id="Fill-20-Clipped">
                                    <mask id="mask-28" fill="white">
                                        <use xlink:href="#path-27"></use>
                                    </mask>
                                    <g id="path-1"></g>
                                    <polygon id="Fill-20" fill="#D6DE27" fill-rule="nonzero" mask="url(#mask-28)" points="127.918701 13.0472393 125.277173 11.5032693 113.824209 18.1901758 116.465737 19.7333081"></polygon>
                                </g>
                                <g id="Fill-21-Clipped">
                                    <mask id="mask-30" fill="white">
                                        <use xlink:href="#path-29"></use>
                                    </mask>
                                    <g id="path-1"></g>
                                    <polygon id="Fill-21" fill="#06A049" fill-rule="nonzero" mask="url(#mask-30)" points="116.465737 19.7328892 113.824209 18.1889192 113.824209 21.2785347 116.465737 22.8208292"></polygon>
                                </g>
                                <g id="Fill-22-Clipped">
                                    <mask id="mask-32" fill="white">
                                        <use xlink:href="#path-31"></use>
                                    </mask>
                                    <g id="path-1"></g>
                                    <polygon id="Fill-22" fill="#8BC440" fill-rule="nonzero" mask="url(#mask-32)" points="116.465737 19.7328892 127.918701 13.0459827 127.918701 16.1364359 116.465737 22.8208292"></polygon>
                                </g>
                                <g id="Fill-23-Clipped">
                                    <mask id="mask-34" fill="white">
                                        <use xlink:href="#path-33"></use>
                                    </mask>
                                    <g id="path-1"></g>
                                    <polygon id="Fill-23" fill="#F59220" fill-rule="nonzero" mask="url(#mask-34)" points="127.926478 6.86457354 116.469377 0.175991573 113.828677 1.72079933 125.28495 8.40686805"></polygon>
                                </g>
                                <g id="Fill-24-Clipped">
                                    <mask id="mask-36" fill="white">
                                        <use xlink:href="#path-35"></use>
                                    </mask>
                                    <g id="path-1"></g>
                                    <polygon id="Fill-24" fill="#BD202E" fill-rule="nonzero" mask="url(#mask-36)" points="125.285446 8.40686805 113.828346 1.71828608 113.828346 4.80873935 125.285446 11.494808"></polygon>
                                </g>
                                <g id="Fill-25-Clipped">
                                    <mask id="mask-38" fill="white">
                                        <use xlink:href="#path-37"></use>
                                    </mask>
                                    <g id="path-1"></g>
                                    <polygon id="Fill-25" fill="#F05A29" fill-rule="nonzero" mask="url(#mask-38)" points="125.285446 8.40686805 127.926974 6.86373578 127.926974 9.95335129 125.285446 11.494808"></polygon>
                                </g>
                                <g id="Fill-26-Clipped">
                                    <mask id="mask-40" fill="white">
                                        <use xlink:href="#path-39"></use>
                                    </mask>
                                    <g id="path-1"></g>
                                    <polygon id="Fill-26" fill="#F59220" fill-rule="nonzero" mask="url(#mask-40)" points="123.522497 9.4349527 112.065397 2.74637072 109.424696 4.29117848 120.880969 10.9772472"></polygon>
                                </g>
                                <g id="Fill-27-Clipped">
                                    <mask id="mask-42" fill="white">
                                        <use xlink:href="#path-41"></use>
                                    </mask>
                                    <g id="path-1"></g>
                                    <polygon id="Fill-27" fill="#BD202E" fill-rule="nonzero" mask="url(#mask-42)" points="120.881465 10.9773309 109.424366 4.28874902 109.424366 7.37920228 120.881465 14.065271"></polygon>
                                </g>
                                <g id="Fill-28-Clipped">
                                    <mask id="mask-44" fill="white">
                                        <use xlink:href="#path-43"></use>
                                    </mask>
                                    <g id="path-1"></g>
                                    <polygon id="Fill-28" fill="#F05A29" fill-rule="nonzero" mask="url(#mask-44)" points="120.881465 10.9773309 123.522994 9.43419875 123.522994 12.5238142 120.881465 14.065271"></polygon>
                                </g>
                                <g id="Fill-29-Clipped">
                                    <mask id="mask-46" fill="white">
                                        <use xlink:href="#path-45"></use>
                                    </mask>
                                    <g id="path-1"></g>
                                    <polygon id="Fill-29" fill="#F59220" fill-rule="nonzero" mask="url(#mask-46)" points="119.118516 12.006002 107.661416 5.31742008 105.020715 6.86222784 116.476988 13.5482966"></polygon>
                                </g>
                                <g id="Fill-30-Clipped">
                                    <mask id="mask-48" fill="white">
                                        <use xlink:href="#path-47"></use>
                                    </mask>
                                    <g id="path-1"></g>
                                    <polygon id="Fill-30" fill="#BD202E" fill-rule="nonzero" mask="url(#mask-48)" points="116.477402 13.5482966 105.020302 6.8597146 105.020302 9.95016785 116.477402 16.6362366"></polygon>
                                </g>
                                <g id="Fill-31-Clipped" transform="translate(4.297297, 0.000000)">
                                    <mask id="mask-50" fill="white">
                                        <use xlink:href="#path-49"></use>
                                    </mask>
                                    <g id="path-1"></g>
                                    <polygon id="Fill-31" fill="#F05A29" fill-rule="nonzero" mask="url(#mask-50)" points="112.180105 13.5482966 114.821633 12.0051643 114.821633 15.0947799 112.180105 16.6362366"></polygon>
                                </g>
                            </g>
                        </g>
                    </g>
                </g>
            </g>
        </g>
    </g>
</svg>