<?xml version="1.0" encoding="utf-8"?>
<!-- Generator: Adobe Illustrator 22.1.0, SVG Export Plug-In . SVG Version: 6.00 Build 0)  -->
<svg version="1.1" id="Layer_1" xmlns="http://www.w3.org/2000/svg" xmlns:xlink="http://www.w3.org/1999/xlink" x="0px" y="0px"
	 viewBox="0 0 165.4 69.9" style="enable-background:new 0 0 165.4 69.9;" xml:space="preserve">
<style type="text/css">
	.st0{fill:#F26722;}
	.st1{fill:#B9D532;}
	.st2{fill:url(#SVGID_1_);}
	.st3{fill:url(#SVGID_2_);}
</style>
<g>
	<g>
		<g>
			<path class="st0" d="M49.5,62.4c0,0,1.8,0,1.9,0v1.1c-0.1,0-1.9,0-2,0c-0.1,0-0.1,0-0.1,0c-0.4,0-0.7,0.1-0.9,0.4
				c-0.1,0.2-0.1,0.4-0.1,0.7v2h-1.1v-4.2h1.1v0.7c0.2-0.3,0.3-0.5,0.4-0.6C48.9,62.5,49.2,62.4,49.5,62.4
				C49.5,62.4,49.5,62.4,49.5,62.4z"/>
			<path class="st0" d="M49.8,62.5v-1.2h1.1v1.2v0.8v2.2c0,0.2,0,0.3,0.1,0.3c0,0,0.2,0.1,0.4,0.1c0,0,0.1,0,0.1,0c0,0,0.1,0,0.1,0
				v0.8l-0.5,0c-0.5,0-0.9-0.1-1.1-0.3c-0.1-0.1-0.2-0.3-0.2-0.6v-2.6V62.5z"/>
			<g>
				<g>
					<path class="st0" d="M49.5,68.9c-2.5,0-4.6-2.1-4.6-4.6c0-2.5,2.1-4.6,4.6-4.6c2.5,0,4.6,2.1,4.6,4.6
						C54.1,66.9,52,68.9,49.5,68.9z M49.5,60.7c-2,0-3.6,1.6-3.6,3.6c0,2,1.6,3.6,3.6,3.6c2,0,3.6-1.6,3.6-3.6
						C53.1,62.3,51.5,60.7,49.5,60.7z"/>
				</g>
			</g>
		</g>
		<g>
			<g>
				<path class="st1" d="M57.4,2.2c-0.7,8.6-8.5,10.4-19.7,15.2c-5.3,2.3-10.4,6-12.2,12.3c-2.1,7.3,0.3,11.9,4.1,18.9
					c1.6,3,3.2,7.9,0.5,12.4c-1.5-9.2-8.3-11.2-14.4-11.3c-6.1,0-13,1.5-15.8-4.7c1.4,9.6,5.8,15.9,11.4,19.1c7.9,4.4,16,4.7,23.1,2
					C41,63.6,48,56.5,52.8,46.6C58.1,35.4,60.6,17.5,57.4,2.2z"/>
				<linearGradient id="SVGID_1_" gradientUnits="userSpaceOnUse" x1="0.2039" y1="58.4136" x2="67.6933" y2="7.6074">
					<stop  offset="0" style="stop-color:#F05E8C"/>
					<stop  offset="0.2454" style="stop-color:#F37043"/>
					<stop  offset="0.764" style="stop-color:#F89925"/>
					<stop  offset="1" style="stop-color:#FFD238"/>
				</linearGradient>
				<path class="st2" d="M34.1,66.3c7.6-2.9,13-13.4,11.4-30.8C44,17.6,36.4,7.5,32.5,0c1.9,5.9-2,9.5-8.4,16.3
					c-5.5,5.8-7,12.1-6,18.6c0.9,6.1,6.1,10.6,10,15.4c1.6,1.9,3.7,6.5,2.1,10.7c0.3-8.7-5.1-12-10.6-13.5
					c-5.9-1.5-12.5-0.8-14.2-8.9c-0.6,13.7,5.3,22.1,12.3,26.1C23.4,67.9,29.2,68.2,34.1,66.3z"/>
			</g>
			<linearGradient id="SVGID_2_" gradientUnits="userSpaceOnUse" x1="53.2576" y1="53.8648" x2="7.5686" y2="28.5123">
				<stop  offset="0" style="stop-color:#F05E8C"/>
				<stop  offset="0.2454" style="stop-color:#F37043"/>
				<stop  offset="0.764" style="stop-color:#F89925"/>
				<stop  offset="1" style="stop-color:#FFD238"/>
			</linearGradient>
			<path class="st3" d="M17.6,64.7c5.7,3.2,11.5,3.5,16.5,1.6c7.6-2.9,13-13.4,11.4-30.8c-0.7-7.5-2.7-14.3-5-19.3
				c-1,0.4-2.3,1-3.4,1.5c-5.3,2.3-9.9,6.5-11.7,12.8c-2.1,7.3,0.3,11.9,4.1,18.9c1.6,3,3.2,7.1,0.5,11.6
				c-1.5-9.2-8.3-10.4-14.4-10.5c-2.9,0-6.4-0.3-9.3-0.9C8.1,56.7,13,62.1,17.6,64.7z"/>
		</g>
	</g>
	<g>
		<g>
			<path d="M71.1,25.3c-1.2,0-2.1,4.5-2.8,13.5v2.8c0,2.9,0.9,4.6,2.8,5.2l0.9-0.3l-0.6-6.7l1.2-12.9v-0.3l-1.2-1.2H71.1z"/>
		</g>
		<path d="M84.4,24.5c1,0,1.9,0.6,2.8,1.8V27l-0.9,0.9L86,27.6c-3,0.3-4.6,0.9-4.9,1.8c1.3,2,4.2,4.7,8.6,8c0.8,1.4,1.2,2.5,1.2,3.4
			v0.9c0,2.7-2,4.4-6.1,5.2h-0.9c-2.5-0.5-3.7-1.7-3.7-3.7v-0.6l0.9-0.9h0.3c0.2,1.4,1.3,2.1,3.4,2.1c2-0.6,3.1-1.6,3.1-3.1
			c0-0.7-2.5-3-7.4-6.7c-1.8-2.2-2.8-3.8-2.8-4.9C77.7,27,79.9,25.4,84.4,24.5z"/>
		<path d="M103.3,24.7h-3.1c-3.9,0-7.1,1.2-9.5,3.7v0.9l1.2,0.9l4.6-1.5h0.6l0.3,8.3v6.4l-0.3,0.3c-2.9,0-4.6-0.7-5.2-2.1l0.3-1.5
			H92c-0.8,0.3-1.2,1-1.2,2.1v0.6c0,2.2,1.6,3.6,4.9,4h1.8l-0.3,5.2l0.3,5.2c0,6.9,1.1,10.8,3.4,11.6h0.8c-0.7-2-0.9-4.2-0.9-6.4
			c0-0.1,0-0.1,0-0.2c-0.1-0.6-0.1-1.3,0-1.9c-0.1-1.1-0.1-2.3-0.2-3.7V46.4l0.9-0.9c6.9-3.4,10.4-7.4,10.4-12v-1.8
			C111.9,27.6,109.1,25.3,103.3,24.7z M100.9,42.4c0-6.3-0.3-11.2-0.9-14.7h1.8c4.7,0,7,1.6,7,4.9C108.9,36.2,106.2,39.4,100.9,42.4
			z"/>
		<g>
			<path d="M116.9,25.3c-1.2,0-2.1,4.5-2.8,13.5v2.8c0,2.9,0.9,4.6,2.8,5.2l0.9-0.3l-0.6-6.7l1.2-12.9v-0.3l-1.2-1.2H116.9z"/>
		</g>
		<path class="st0" d="M135.6,24.7c2.7,0,3.9,0.9,3.8,2.6c-0.1,1.7-1.6,1.9-4.4,0.5c-5.4,1.8-8.1,4.3-8.1,7.4l-0.3,8.4v0.3l0.6,0.9
			v2.5l-1.2,1.2c-1.8,0-2.8-2.1-2.8-6.4l0.6-6.6c-0.6,0-0.9-0.2-0.9-0.6v-0.6c1-2.5,1.8-5.8,2.5-9.8l0.3-0.3h0.6
			c0.6,0,0.9,1.4,0.9,4.3C130,25.9,132.8,24.7,135.6,24.7z"/>
		<path class="st0" d="M143.9,3.7h0.9c1,0,1.5,2.7,1.5,8v2.1h0.3l8.6-1.8h3.4c2.5,0,4.7,1.5,6.7,4.6v0.6h-0.3
			c-1.9-1.6-3.9-2.5-5.8-2.5c-9,0.9-13.5,2.2-13.5,4c-1.8,14.5-2.8,24-2.8,28.5v1.2h0.3v-0.9h0.6v2.1c0,1.4-0.6,2.1-1.8,2.1
			c-1.4-0.6-2.1-1.6-2.1-3.1V46c0-5.1,0.9-14.2,2.8-27.3h-0.3l-8.3,1.5h-1.8l-1.2-1.2c0-0.9,4-2.2,11.9-4V8.6l-0.3-2.8
			C143.1,4.4,143.5,3.7,143.9,3.7z"/>
	</g>
</g>
</svg>
