<?xml version="1.0" encoding="UTF-8"?>
<svg width="20px" height="21px" viewBox="0 0 20 21" version="1.1" xmlns="http://www.w3.org/2000/svg" xmlns:xlink="http://www.w3.org/1999/xlink">
    <!-- Generator: Sketch 50.2 (55047) - http://www.bohemiancoding.com/sketch -->
    <title>Rectangle 5</title>
    <desc>Created with Sketch.</desc>
    <defs></defs>
    <g id="Page-1" stroke="none" stroke-width="1" fill="none" fill-rule="evenodd">
        <g id="Our-People" transform="translate(-664.000000, -1633.000000)" fill="#000000">
            <g id="Core-Copy-3" transform="translate(120.000000, 1623.000000)">
                <g id="Row">
                    <g id="AnandampillaiKiran-Copy" transform="translate(312.000000, 0.000000)">
                        <g id="1" transform="translate(232.000000, 8.000000)">
                            <path d="M2,2 L18,2 C19.1045695,2 20,2.8954305 20,4 L20,20.763932 C20,21.8685015 19.1045695,22.763932 18,22.763932 C17.6895098,22.763932 17.3832837,22.6916418 17.1055728,22.5527864 L10.8944272,19.4472136 C10.3313722,19.1656861 9.66862779,19.1656861 9.10557281,19.4472136 L2.89442719,22.5527864 C1.9064702,23.0467649 0.705124115,22.6463162 0.211145618,21.6583592 C0.0722901835,21.3806483 1.47774388e-15,21.0744222 8.8817842e-16,20.763932 L-1.77635684e-15,4 C-1.91162759e-15,2.8954305 0.8954305,2 2,2 Z" id="Rectangle-5"></path>
                        </g>
                    </g>
                </g>
            </g>
        </g>
    </g>
</svg>