<?xml version="1.0" encoding="UTF-8"?>
<svg width="92px" height="92px" viewBox="0 0 92 92" version="1.1" xmlns="http://www.w3.org/2000/svg" xmlns:xlink="http://www.w3.org/1999/xlink">
    <!-- Generator: Sketch 50.2 (55047) - http://www.bohemiancoding.com/sketch -->
    <title>749860</title>
    <desc>Created with Sketch.</desc>
    <defs></defs>
    <g id="Page-1" stroke="none" stroke-width="1" fill="none" fill-rule="evenodd">
        <g id="Startpage---USE-THIS" transform="translate(-40.000000, -483.000000)" fill="#79C4D3" fill-rule="nonzero">
            <g id="Introduction-Copy">
                <g id="Content" transform="translate(37.000000, 139.000000)">
                    <g id="Text">
                        <g id="749860" transform="translate(3.000000, 344.000000)">
                            <path d="M57.0780989,24.0483516 L57.0719821,24.0483516 C57.4665204,24.9443928 57.9665748,25.7911071 58.5614408,26.5708507 C58.6400044,26.6985313 58.7334778,26.816726 58.8397585,26.9229685 C58.9636252,27.0656369 59.0874919,27.2098231 59.2190047,27.3782932 C61.0204239,29.5486745 61.49754,30.6627023 61.7269228,34.8243704 C61.7187032,36.0833433 62.1210788,37.3110126 62.8738365,38.3242999 L62.8738365,43.9308651 C62.8736454,45.5284858 63.8817826,46.95517 65.3955176,47.4990933 C66.1157795,49.468942 68.3088698,50.4862133 70.2934129,49.7713535 C71.35794,49.3879321 72.196334,48.5556364 72.5828439,47.4990933 C74.0977259,46.9563083 75.1073923,45.5294344 75.1075834,43.9308651 L75.1075834,38.3288531 C75.8502101,37.3394704 76.2514388,36.1385514 76.2514388,34.9048111 C76.4762339,30.6551136 76.9594669,29.5486745 78.7761783,27.355527 C78.8923989,27.2113408 79.0162656,27.0671546 79.0621421,27.0079624 C79.1965222,26.8770566 79.3156101,26.7313527 79.4169208,26.5738862 C80.0169478,25.7943323 80.5210164,24.9464797 80.9186132,24.0483516 C83.7811188,17.5144417 80.7649268,9.91431295 74.1814506,7.07327631 C67.5979744,4.23223967 59.9406046,7.2258101 57.0780989,13.7599098 C55.6406337,17.0409039 55.6406337,20.7671678 57.0780989,24.0483516 Z M72.0491467,43.9308651 C72.0491467,44.3499536 71.706793,44.6897397 71.2845375,44.6897397 C70.4400267,44.6897397 69.7553192,45.3693119 69.7553192,46.2074888 C69.7553192,46.6265773 69.4129654,46.9663634 68.99071,46.9663634 C68.5684546,46.9663634 68.2261008,46.6265773 68.2261008,46.2074888 C68.2261008,45.3693119 67.5413933,44.6897397 66.6968824,44.6897397 C66.274627,44.6897397 65.9322733,44.3499536 65.9322733,43.9308651 L65.9322733,39.3776178 L72.0491467,39.3776178 L72.0491467,43.9308651 Z M65.0327106,9.84240958 C66.2816997,9.30322921 67.6287499,9.02434281 68.99071,9.02263534 C74.4871031,9.02889605 78.937702,13.45636 78.931394,18.9115297 C78.9298647,20.2611881 78.6496355,21.5960485 78.1079099,22.8341523 C77.800537,23.5311786 77.4092482,24.1885537 76.9426455,24.7920487 C76.8986804,24.8390989 76.8587296,24.8899435 76.8233664,24.9438236 C76.6704446,25.1183648 76.5175228,25.2944237 76.399773,25.4461986 C74.0738318,28.2540345 73.4453231,30.0783689 73.1960605,34.8243704 C73.2132642,35.3605153 73.0672238,35.8894509 72.7770547,36.3421195 L65.2074238,36.3421195 C64.9071235,35.8638388 64.7595539,35.3068249 64.7838303,34.7439297 C64.5360969,30.0783689 63.9075882,28.2540345 61.5984684,25.4674471 C61.4646618,25.2961311 61.3195772,25.1339217 61.1641704,24.9817674 C61.1268957,24.9157453 61.0850334,24.8523792 61.0387745,24.7920487 C60.5735098,24.1902612 60.183368,23.534973 59.8765685,22.8402233 C57.6840517,17.837912 59.992598,12.0184824 65.0327106,9.84240958 Z" id="Shape"></path>
                            <rect id="Rectangle-path" x="67" y="0" width="3" height="3"></rect>
                            <rect id="Rectangle-path" transform="translate(57.500000, 6.500000) rotate(45.000000) translate(-57.500000, -6.500000) " x="56" y="5" width="3" height="3"></rect>
                            <rect id="Rectangle-path" x="51" y="17" width="3" height="3"></rect>
                            <rect id="Rectangle-path" transform="translate(57.500000, 30.500000) rotate(-45.000000) translate(-57.500000, -30.500000) " x="56" y="29" width="3" height="3"></rect>
                            <rect id="Rectangle-path" transform="translate(80.500000, 30.500000) rotate(-135.000000) translate(-80.500000, -30.500000) " x="79" y="29" width="3" height="3"></rect>
                            <rect id="Rectangle-path" x="84" y="17" width="3" height="3"></rect>
                            <rect id="Rectangle-path" transform="translate(80.500000, 6.500000) rotate(45.000000) translate(-80.500000, -6.500000) " x="79" y="5" width="3" height="3"></rect>
                            <path d="M87.3636364,63.12 L73.4545455,63.12 L73.4545455,58.56 C73.4545455,56.04155 71.3788068,54 68.8181818,54 C66.2575568,54 64.1818182,56.04155 64.1818182,58.56 L64.1818182,72.24 L62.6363636,72.24 C60.0757386,72.24 58,74.28155 58,76.8 L58,81.36 C58,81.76318 58.1630455,82.14964 58.4528182,82.43464 L64.1818182,88.06928 L64.1818182,92 L67.2727273,92 L67.2727273,87.44 C67.2727273,87.03682 67.1096818,86.65036 66.8199091,86.36536 L61.0909091,80.73072 L61.0909091,76.8 C61.0909091,75.96058 61.7828864,75.28 62.6363636,75.28 L76.5454545,75.28 L76.5454545,76.8 C76.5454545,77.63942 75.8534773,78.32 75,78.32 L67.2727273,78.32 C66.41925,78.32 65.7272727,79.00058 65.7272727,79.84 C65.7272727,80.67942 66.41925,81.36 67.2727273,81.36 L68.8181818,81.36 C71.3788068,81.36 73.4545455,83.40155 73.4545455,85.92 L73.4545455,88.96 L76.5454545,88.96 L76.5454545,85.92 C76.5485455,84.27517 76.0058977,82.67404 75,81.36 C76.1200682,81.35563 77.1999545,80.94922 78.0368182,80.21696 C79.8268409,81.72024 82.4556591,81.74323 84.2727273,80.27168 C85.1248523,81.00774 86.2300455,81.39686 87.3636364,81.36 C87.8887045,81.35772 88.4101023,81.27469 88.9090909,81.11376 L88.9090909,92 L92,92 L92,67.68 C92,65.16155 89.9242614,63.12 87.3636364,63.12 Z M70.3636364,72.24 L67.2727273,72.24 L67.2727273,58.56 C67.2727273,57.72058 67.9647045,57.04 68.8181818,57.04 C69.6716591,57.04 70.3636364,57.72058 70.3636364,58.56 L70.3636364,72.24 Z M76.5454545,72.24 L73.4545455,72.24 L73.4545455,66.16 L76.5454545,66.16 L76.5454545,72.24 Z M81.4683068,78.31829 C81.3730682,78.32836 81.2770568,78.32893 81.1818182,78.32 C80.4046477,78.39505 79.7126705,77.83607 79.6363636,77.0717 C79.6272841,76.98126 79.6272841,76.89044 79.6363636,76.8 L79.6363636,66.16 L82.7272727,66.16 L82.7272727,76.78176 C82.8111136,77.54803 82.2474091,78.23583 81.4683068,78.31829 Z M87.650125,78.31829 C87.5548864,78.32836 87.458875,78.32893 87.3636364,78.32 C86.5864659,78.39505 85.8944886,77.83607 85.8181818,77.0717 C85.8091023,76.98126 85.8091023,76.89044 85.8181818,76.8 L85.8181818,66.16 L87.3636364,66.16 C88.2171136,66.16 88.9090909,66.84058 88.9090909,67.68 L88.9090909,76.78176 C88.9929318,77.54803 88.4292273,78.23583 87.650125,78.31829 Z" id="Shape"></path>
                            <path d="M69,14.2 L69,11 C64.584,11.0052 61.0052,14.584 61,19 L64.2,19 C64.2,16.349 66.349,14.2 69,14.2 Z" id="Shape"></path>
                            <path d="M44.6756757,58.6521739 L46.2162162,58.6521739 C48.7686993,58.6521739 50.8378378,56.608288 50.8378378,54.0869565 L50.8378378,52.5652174 C50.8378378,50.0438859 48.7686993,48 46.2162162,48 L41.5945946,48 L41.5945946,51.0434783 L46.2162162,51.0434783 C47.0669797,51.0434783 47.7567568,51.724837 47.7567568,52.5652174 L47.7567568,54.0869565 C47.7567568,54.927337 47.0669797,55.6086957 46.2162162,55.6086957 L43.1351351,55.6086957 C42.2843716,55.6086957 41.5945946,56.2900543 41.5945946,57.1304348 L41.5945946,69.3043478 L13.8648649,69.3043478 L13.8648649,57.1304348 C13.8648649,56.2900543 13.1750878,55.6086957 12.3243243,55.6086957 L10.7837838,55.6086957 C9.93302027,55.6086957 9.24324324,54.927337 9.24324324,54.0869565 L6.16216216,54.0869565 C6.16216216,56.608288 8.23130068,58.6521739 10.7837838,58.6521739 L10.7837838,69.3043478 L0,69.3043478 L0,72.3478261 L16.3081622,72.3478261 L26.6405676,82.5541304 C26.9294189,82.8394565 27.3211014,83 27.7297297,83 L27.7882703,83 C28.2173108,82.9836413 28.619777,82.7911413 28.899,82.468913 L37.6800811,72.3493478 L57,72.3493478 L57,69.3043478 L44.6756757,69.3043478 L44.6756757,58.6521739 Z M27.6419189,79.2397826 L20.6648108,72.3478261 L33.6238378,72.3478261 L27.6419189,79.2397826 Z" id="Shape"></path>
                            <path d="M6.09090909,31.8181818 C6.09593182,27.5527273 9.55272727,24.0959318 13.8181818,24.0909091 L29.2727273,24.0909091 C31.8333523,24.0909091 33.9090909,26.1666477 33.9090909,28.7272727 L37,28.7272727 C36.9949773,24.4618182 33.5381818,21.0050227 29.2727273,21 L13.8181818,21 C7.84673864,21.0077273 3.00772727,25.8467386 3,31.8181818 L3,38 L6.09090909,38 L6.09090909,31.8181818 Z" id="Shape"></path>
                            <path d="M47.8571429,33.5 L47.8571429,44 L51,44 L51,33.5 C50.9948929,29.36 47.48,26.004875 43.1428571,26 L40,26 L40,29 L43.1428571,29 C45.7465179,29 47.8571429,31.0146875 47.8571429,33.5 Z" id="Shape"></path>
                            <path d="M33.5,55.3333333 C34.328375,55.3333333 35,56.0795833 35,57 L38,57 C38,54.2385417 35.9853125,52 33.5,52 C31.0146875,52 29,54.2385417 29,57 L32,57 C32,56.0795833 32.671625,55.3333333 33.5,55.3333333 Z" id="Shape"></path>
                            <path d="M21.5,52 C19.0146875,52 17,54.2385417 17,57 L20,57 C20,56.0795833 20.671625,55.3333333 21.5,55.3333333 C22.328375,55.3333333 23,56.0795833 23,57 L26,57 C26,54.2385417 23.9853125,52 21.5,52 Z" id="Shape"></path>
                            <polygon id="Shape" points="31 63 29.5 63 29.5 60 26.5 60 26.5 63 25 63 25 66 31 66"></polygon>
                            <path d="M33.3703704,32 L33.3703704,35 C33.3627778,41.624375 27.9283796,46.9925 21.2222222,47 L3,47 L3,50 L21.2222222,50 C28.3152222,49.988375 34.4576296,45.1334375 36.0247407,38.3 C37.355912,39.6498125 39.0837963,40.5509375 40.962963,40.8755 L40.962963,44 L44,44 L44,39.5 C44,38.671625 43.3200833,38 42.4814815,38 C39.1268843,38 36.4074074,35.3136875 36.4074074,32 L33.3703704,32 Z" id="Shape"></path>
                            <path d="M31,33.5 L31,32 L27.9,32 L27.9,33.5 C27.8949625,37.64 24.428,40.995125 20.15,41 L0,41 L0,44 L20.15,44 C26.1390062,43.9925 30.99225,39.2958125 31,33.5 Z" id="Shape"></path>
                        </g>
                    </g>
                </g>
            </g>
        </g>
    </g>
</svg>