<?xml version="1.0" encoding="UTF-8"?>
<svg width="95px" height="92px" viewBox="0 0 95 92" version="1.1" xmlns="http://www.w3.org/2000/svg" xmlns:xlink="http://www.w3.org/1999/xlink">
    <!-- Generator: Sketch 50.2 (55047) - http://www.bohemiancoding.com/sketch -->
    <title>749870</title>
    <desc>Created with Sketch.</desc>
    <defs></defs>
    <g id="Page-1" stroke="none" stroke-width="1" fill="none" fill-rule="evenodd">
        <g id="Startpage---USE-THIS" transform="translate(-441.000000, -483.000000)" fill="#79C4D3" fill-rule="nonzero">
            <g id="Introduction-Copy">
                <g id="Content" transform="translate(37.000000, 139.000000)">
                    <g id="Text">
                        <g id="749870" transform="translate(404.000000, 344.000000)">
                            <path d="M65.7702737,39.9178947 C65.5245321,24.9486842 56.372615,0 47,0 C37.627385,0 28.4754679,24.9486842 28.2297263,39.9178947 L11.4112981,58.1990431 C11.1009907,58.5364351 10.9550327,58.9925282 11.0121637,59.4464773 L14.1426296,84.3951615 C14.2404567,85.1753926 14.906072,85.7609071 15.6953407,85.761102 L18.8258066,85.761102 C19.5982491,85.7607122 20.2548643,85.1993668 20.3722568,84.4388217 L23.3540256,65.1410145 L37.3738173,60.9511948 C37.721299,61.1850887 38.0734764,61.4080676 38.4303495,61.6138943 L34.7019646,67.8058458 C34.2566558,68.5359847 34.4898755,69.4873481 35.2227959,69.9309669 C35.4368415,70.0605832 35.6792569,70.1365987 35.9291072,70.1525814 L31.6904564,75.4307874 C31.1502553,76.1030375 31.2592347,77.0844174 31.9340458,77.6225683 C32.2118746,77.8441828 32.5570085,77.9648331 32.9129033,77.9646382 L36.8619861,77.9646382 L34.5892678,83.6233116 C34.2685907,84.4230339 34.659312,85.3303474 35.4620809,85.6498075 C35.646974,85.723484 35.8441934,85.761102 36.0433692,85.761102 L42.9022201,85.761102 L45.5991165,91.1359841 C45.9847508,91.9066646 46.9244775,92.2200824 47.6982896,91.8359117 C48.0025317,91.6848552 48.2492516,91.4390717 48.4008835,91.1359841 L51.0977799,85.761102 L57.9566308,85.761102 C58.8210307,85.7614918 59.5220594,85.0635134 59.5224507,84.202394 C59.5224507,84.003974 59.4846894,83.8075031 59.4107322,83.6233116 L57.1380139,77.9646382 L59.5218637,77.9646382 C60.3862636,77.9644433 61.086901,77.2662699 61.0867054,76.4049556 C61.0867054,76.1221389 61.009422,75.8445847 60.8632684,75.6023096 L57.5903662,70.1681744 L57.9566308,70.1681744 C58.8210307,70.1679794 59.5216681,69.4698061 59.5214724,68.6084918 C59.5214724,68.325675 59.444189,68.0481209 59.2980354,67.8058458 L55.5696505,61.6138943 C55.9265236,61.4080676 56.278701,61.1850887 56.6261827,60.9511948 L70.6459744,65.1410145 L73.6277432,84.4388217 C73.7451357,85.1993668 74.4017509,85.7607122 75.1741934,85.761102 L78.3046593,85.761102 C79.093928,85.7609071 79.7595433,85.1753926 79.8573704,84.3951615 L82.9878363,59.4464773 C83.0449673,58.9925282 82.8990093,58.5364351 82.5887019,58.1990431 L65.7702737,39.9178947 Z M47,3.11858553 C49.5967215,3.11858553 52.7146656,6.9372935 55.4835627,12.4743421 L38.5164373,12.4743421 C41.2853344,6.9372935 44.4032785,3.11858553 47,3.11858553 Z M21.5070507,62.4372008 C20.9290884,62.6106722 20.5027581,63.0997053 20.4113876,63.6939908 L17.4828368,82.6425165 L17.0774414,82.6425165 L14.2083694,59.7754881 L28.4316413,44.3166596 C28.7865579,49.6090942 30.9299488,54.6259237 34.5125714,58.549884 L21.5070507,62.4372008 Z M56.7560971,74.8460526 L54.8261648,74.8460526 C53.9617649,74.8456628 53.2607362,75.5436412 53.2603449,76.4047607 C53.2603449,76.6031807 53.2981061,76.7996516 53.3720634,76.983843 L55.6447817,82.6425165 L50.1304659,82.6425165 C49.5343078,82.639203 48.9882372,82.9736713 48.7217563,83.5048054 L47,86.9524017 L45.2782437,83.5048054 C45.0117628,82.9736713 44.4656922,82.639203 43.8695341,82.6425165 L38.3552183,82.6425165 L40.6279366,76.983843 C40.9486137,76.1841207 40.5578924,75.2768073 39.7551236,74.9573472 C39.5702304,74.8836706 39.3730111,74.8460526 39.1738352,74.8460526 L36.1701531,74.8460526 L39.9267122,70.1681744 L43.2637889,70.1681744 L42.3856932,72.7940234 C42.2326917,73.2503114 42.2996054,73.751624 42.5672602,74.1521674 L45.6977262,78.8300457 C46.1772744,79.5465407 47.1490884,79.7400879 47.868313,79.2623596 C48.0400973,79.1481414 48.1876205,79.0013729 48.3022738,78.8300457 L51.4327398,74.1521674 C51.7003946,73.751624 51.7673083,73.2503114 51.6143068,72.7940234 L50.7362111,70.1681744 L53.940243,70.1681744 L56.7560971,74.8460526 Z M38.8091359,67.0495888 L41.2931606,62.9221409 C44.9779147,64.266836 49.0220853,64.266836 52.7068394,62.9221409 L55.1908641,67.0495888 L38.8091359,67.0495888 Z M48.4024487,73.0575438 L47,75.1579112 L45.5912903,73.0622217 L46.5633,70.1681744 L47.4367,70.1681744 L48.4024487,73.0575438 Z M47,60.8124178 C39.461838,60.8124178 31.3476704,54.4692148 31.3476704,40.5416118 C31.675978,31.9421123 33.6180408,23.4802203 37.0732925,15.5929276 L56.9267075,15.5929276 C60.3819592,23.4802203 62.324022,31.9421123 62.6523296,40.5416118 C62.6523296,54.4692148 54.538162,60.8124178 47,60.8124178 Z M76.9225586,82.6425165 L76.5171632,82.6425165 L73.5901776,63.6939908 C73.4988071,63.0997053 73.0724768,62.6106722 72.4945145,62.4372008 L59.4889938,58.549884 C63.0716164,54.6259237 65.2150073,49.6090942 65.5699239,44.3166596 L79.7931958,59.7754881 L76.9225586,82.6425165 Z" id="Shape"></path>
                            <path d="M47,19 C40.9248571,19 36,23.9248571 36,30 C36.0078571,36.0718036 40.9281964,40.9921429 47,41 C53.0751429,41 58,36.0751429 58,30 C58,23.9248571 53.0751429,19 47,19 Z M47,37.8571429 C42.6606964,37.8571429 39.1428571,34.3393036 39.1428571,30 C39.1479643,25.6628571 42.6628571,22.1479643 47,22.1428571 C51.3393036,22.1428571 54.8571429,25.6606964 54.8571429,30 C54.8571429,34.3393036 51.3393036,37.8571429 47,37.8571429 Z" id="Shape"></path>
                            <path d="M37.4013605,41 L34,41 C34.0542092,46.8432104 36.9570578,52.3528257 41.9030612,56 L44,53.5259027 C39.8686224,50.4811617 37.4445153,45.8797096 37.4013605,41 Z" id="Shape"></path>
                            <rect id="Rectangle-path" transform="translate(45.500000, 57.500000) rotate(-151.907628) translate(-45.500000, -57.500000) " x="44" y="56" width="3" height="3"></rect>
                            <path d="M51.4222819,25.1064596 C50.2846367,23.7891346 48.6957457,23.0281623 47.0234604,23 L47,26.1510241 C48.7085756,26.1667792 50.0819244,27.6678483 50.0672616,29.5037137 C50.0667118,29.5842618 50.0632294,29.6646129 50.057181,29.744767 L50.0630461,29.7400405 L52.9809311,30 C53.1136288,28.2072642 52.54948,26.4357979 51.4222819,25.1064596 Z" id="Shape"></path>
                            <path d="M87.3404255,18.8574018 L72.9787234,18.8574018 C70.3347739,18.8746858 68.1771277,16.7784149 68.1595745,14.1750165 C68.1420213,11.5716181 70.2709441,9.44706432 72.9148936,9.42978034 C74.612766,9.50048751 75.1281915,9.51777148 75.6771277,8.99768103 C75.9918883,8.69972891 76.1700133,8.28844892 76.1702128,7.8585101 C76.1748005,5.25511171 78.3216755,3.14823471 80.965625,3.15275211 C82.6866356,3.15569825 84.2738032,4.06801703 85.1223404,5.54245775 C85.4369016,6.09633051 86.0610372,6.4068528 86.7005319,6.32809288 C86.912766,6.30138128 87.1263963,6.28782908 87.3404255,6.28723985 C89.3514628,6.27899068 91.2468085,7.2121288 92.4468085,8.80127225 L95,6.91574795 C93.1990027,4.53330944 90.3565824,3.13389687 87.3404255,3.14469935 C84.6974734,-0.327218666 79.696609,-1.03193337 76.1706117,1.57048298 C74.6075798,2.72418815 73.5284574,4.40250119 73.1382979,6.28723985 L72.9787234,6.28723985 C68.5722739,6.28723985 65,9.80472471 65,14.1435911 C65,18.4824575 68.5722739,21.9999423 72.9787234,21.9999423 L87.3404255,21.9999423 C90.3565824,22.010352 93.1988032,20.6111358 95,18.2288937 L92.4468085,16.3433694 C91.2458112,17.9313344 89.3510638,18.8640797 87.3404255,18.8574018 Z" id="Shape"></path>
                            <path d="M15.362938,38.857393 L0.0306645469,38.857393 L0.0306645469,42 L15.362938,42 C19.5967536,41.9835013 23.0160423,38.4525859 22.9999434,34.1136276 C22.9838445,29.7746694 19.538491,26.2704661 15.3046753,26.2869648 L15.2126817,26.2869648 C14.3659569,22.0356067 10.3167035,19.2925036 6.16836526,20.1602559 C4.3175682,20.5473858 2.67126534,21.6211754 1.54549316,23.1757838 L0.0613290938,23.1443577 L0,26.2869648 L2.33050556,26.3341039 L2.36117011,26.3341039 C2.9100655,26.3352824 3.41756375,26.0355562 3.69201144,25.5484521 C4.94159173,23.2816504 7.74739777,22.4822497 9.95926987,23.7628621 C11.4006952,24.5974207 12.2934168,26.1616533 12.2964833,27.8582683 C12.2970583,28.287627 12.4682048,28.6983264 12.7702505,28.995892 C13.2976808,29.5175648 13.7929132,29.4939953 15.362938,29.4295718 C17.903304,29.4295718 19.96262,31.5400289 19.96262,34.1434824 C19.96262,36.7469359 17.903304,38.857393 15.362938,38.857393 Z" id="Shape"></path>
                        </g>
                    </g>
                </g>
            </g>
        </g>
    </g>
</svg>